<svg width="138" height="138" viewBox="0 0 138 138" fill="none" xmlns="http://www.w3.org/2000/svg">
<g clip-path="url(#clip0_98_17)">
<path d="M5.97757 45.853C-6.8286 80.6726 11.006 119.263 45.8123 132.047C80.6186 144.83 119.216 126.967 132.022 92.1472C144.829 57.3276 126.994 18.7374 92.1876 5.95357C57.3812 -6.83022 18.7837 11.0334 5.97757 45.853Z" fill="white" stroke="#246833" stroke-width="0.569526"/>
<path fill-rule="evenodd" clip-rule="evenodd" d="M60.8588 66.5452C62.2629 64.6505 66.1965 65.4675 67.5446 66.619C69.5397 68.5238 71.6291 71.1289 69.9153 75.1572C69.0494 77.5665 65.5091 79.4293 65.5524 79.1542C65.5525 79.1499 66.9009 76.3779 67.2424 75.2546C67.8523 74.094 67.5073 71.008 67.3569 71.1929C66.9411 69.5171 65.6024 68.3869 64.4593 67.7792C63.1127 67.0513 62.0143 66.8599 60.8588 66.5453L60.8588 66.5452Z" fill="#246833" stroke="#246833" stroke-width="0.210866"/>
<path fill-rule="evenodd" clip-rule="evenodd" d="M73.3038 80.5868C74.7079 78.6922 78.6415 79.5091 79.9896 80.6607C81.9847 82.5655 84.0741 85.1706 82.3603 89.1988C81.4944 91.6082 77.9541 93.4709 77.9974 93.1958C77.9988 93.192 79.3459 90.4195 79.6874 89.2962C80.2973 88.1356 79.9523 85.0496 79.8019 85.2345C79.3861 83.5587 78.0474 82.4285 76.9043 81.8208C75.5577 81.093 74.4593 80.9014 73.3038 80.5869L73.3038 80.5868Z" fill="#246833" stroke="#246833" stroke-width="0.210866"/>
<path fill-rule="evenodd" clip-rule="evenodd" d="M68.0768 95.7936C69.4809 93.899 73.4144 94.7159 74.7625 95.8674C76.7576 97.7722 78.8471 100.377 77.1333 104.406C76.2674 106.815 72.7271 108.678 72.7704 108.403C72.7705 108.398 74.1188 105.626 74.4603 104.503C75.0702 103.342 74.7252 100.256 74.5748 100.441C74.159 98.7655 72.8204 97.6353 71.6773 97.0276C70.3307 96.2997 69.2323 96.1082 68.0768 95.7936V95.7936Z" fill="#246833" stroke="#246833" stroke-width="0.210866"/>
<path fill-rule="evenodd" clip-rule="evenodd" d="M54.9351 82.9491C56.3391 81.0545 60.2726 81.8714 61.6207 83.0229C63.6158 84.9277 65.7053 87.5328 63.9915 91.5611C63.1256 93.9704 59.5853 95.8332 59.6286 95.5581C59.6288 95.5538 60.9772 92.7818 61.3187 91.6585C61.9286 90.4979 61.5834 87.4118 61.433 87.5967C61.0172 85.921 59.6786 84.7908 58.5355 84.1831C57.1889 83.4552 56.0906 83.2637 54.9351 82.9491V82.9491Z" fill="#246833" stroke="#246833" stroke-width="0.210866"/>
<path fill-rule="evenodd" clip-rule="evenodd" d="M42.8753 70.1379C44.2793 68.2432 48.2128 69.0601 49.561 70.2116C51.556 72.1164 53.6455 74.7216 51.9317 78.7498C51.0658 81.1592 47.5256 83.0219 47.5689 82.7468C47.569 82.7425 48.9174 79.9705 49.2589 78.8472C49.8688 77.6866 49.5237 74.6006 49.3732 74.7854C48.9574 73.1097 47.6188 71.9796 46.4757 71.3719C45.1292 70.644 44.0308 70.4525 42.8753 70.1379L42.8753 70.1379Z" fill="#246833" stroke="#246833" stroke-width="0.210866"/>
<path fill-rule="evenodd" clip-rule="evenodd" d="M31.3204 54.9611C32.7244 53.0665 36.6581 53.8834 38.0062 55.0349C40.0013 56.9397 42.0906 59.5449 40.3768 63.5731C39.5109 65.9825 35.9708 67.8452 36.0141 67.5701C36.0155 67.5663 37.3625 64.7938 37.704 63.6705C38.3139 62.5099 37.9689 59.4239 37.8184 59.6088C37.4026 57.933 36.0641 56.8028 34.921 56.1952C33.5744 55.4673 32.4758 55.2757 31.3204 54.9612L31.3204 54.9611Z" fill="#246833" stroke="#246833" stroke-width="0.210866"/>
<path fill-rule="evenodd" clip-rule="evenodd" d="M36.8876 85.4295C38.2916 83.5348 42.2253 84.3518 43.5734 85.5033C45.5685 87.4081 47.6578 90.0133 45.944 94.0415C45.0781 96.4508 41.5378 98.3136 41.5811 98.0385C41.5812 98.0342 42.9297 95.2621 43.2712 94.1389C43.8811 92.9783 43.5361 89.8922 43.3857 90.0771C42.9698 88.4014 41.6311 87.2712 40.488 86.6635C39.1414 85.9357 38.043 85.7441 36.8876 85.4296L36.8876 85.4295Z" fill="#246833" stroke="#246833" stroke-width="0.210866"/>
<path fill-rule="evenodd" clip-rule="evenodd" d="M49.0656 97.9198C50.4697 96.0252 54.4032 96.8421 55.7513 97.9936C57.7464 99.8984 59.8358 102.504 58.122 106.532C57.2561 108.941 53.7159 110.804 53.7592 110.529C53.7606 110.525 55.1077 107.752 55.4492 106.629C56.0591 105.469 55.7141 102.383 55.5637 102.568C55.1479 100.892 53.8091 99.7616 52.666 99.1539C51.3195 98.426 50.2211 98.2345 49.0656 97.9199L49.0656 97.9198Z" fill="#246833" stroke="#246833" stroke-width="0.210866"/>
<path fill-rule="evenodd" clip-rule="evenodd" d="M60.4611 110.259C61.2744 108.512 64.5586 108.521 65.8272 109.222C67.7377 110.42 69.8384 112.163 69.1272 115.67C68.8293 117.741 66.2998 119.813 66.2895 119.586C66.2904 119.583 66.9136 117.142 67.0027 116.186C67.3005 115.157 66.5178 112.742 66.4277 112.915C65.8196 111.641 64.562 110.956 63.547 110.657C62.349 110.295 61.4381 110.322 60.4611 110.259V110.259Z" fill="#246833" stroke="#246833" stroke-width="0.172363"/>
<path fill-rule="evenodd" clip-rule="evenodd" d="M71.3566 119.695C71.6551 118.175 74.5511 117.555 75.8366 117.861C77.8065 118.433 80.0745 119.394 80.2868 122.269C80.52 123.943 78.7871 126.044 78.7236 125.869C78.7239 125.866 78.6885 123.841 78.5386 123.077C78.5549 122.216 77.2873 120.479 77.2493 120.632C76.4089 119.753 75.1368 119.457 74.1708 119.417C73.0288 119.363 72.2325 119.557 71.3566 119.695V119.695Z" fill="#246833" stroke="#246833" stroke-width="0.147655"/>
<path fill-rule="evenodd" clip-rule="evenodd" d="M80.3002 108.26C81.1864 107.152 83.8822 107.756 84.8364 108.49C86.2554 109.699 87.7628 111.334 86.7405 113.725C86.2374 115.159 83.9013 116.189 83.9212 116.023C83.922 116.022 84.739 114.38 84.9315 113.71C85.3049 113.024 84.9636 111.146 84.8681 111.254C84.5278 110.228 83.5807 109.507 82.7845 109.107C81.8462 108.629 81.0949 108.482 80.3001 108.26L80.3002 108.26Z" fill="#246833" stroke="#246833" stroke-width="0.134941"/>
<path fill-rule="evenodd" clip-rule="evenodd" d="M85.0841 92.9667C86.3458 91.253 89.8601 91.9767 91.0615 93.0108C92.8389 94.7223 94.6982 97.0651 93.1523 100.704C92.3706 102.881 89.1983 104.573 89.238 104.324C89.2394 104.321 90.453 101.816 90.7621 100.801C91.3114 99.7524 91.0133 96.9699 90.8782 97.1371C90.5121 95.627 89.3191 94.6121 88.2991 94.0678C87.0975 93.4157 86.1162 93.2467 85.084 92.9669L85.0841 92.9667Z" fill="#246833" stroke="#246833" stroke-width="0.189366"/>
<path fill-rule="evenodd" clip-rule="evenodd" d="M96.6489 103.599C97.5192 102.383 99.8805 102.85 100.679 103.561C101.857 104.741 103.084 106.363 102 108.932C101.449 110.468 99.2896 111.691 99.3192 111.516C99.3201 111.514 100.167 109.743 100.387 109.028C100.77 108.286 100.601 106.338 100.508 106.457C100.278 105.402 99.4854 104.704 98.8039 104.334C98.0013 103.891 97.3413 103.784 96.6489 103.599L96.6489 103.599Z" fill="#246833" stroke="#246833" stroke-width="0.130193"/>
<path fill-rule="evenodd" clip-rule="evenodd" d="M102.86 88.851C103.863 87.3149 106.33 87.7251 107.127 88.5364C108.295 89.8915 109.485 91.7802 108.166 94.9754C107.481 96.8783 105.114 98.5079 105.157 98.2937C105.158 98.2912 106.173 96.0822 106.454 95.1988C106.907 94.2716 106.859 91.9161 106.753 92.0667C106.58 90.8003 105.788 90.0048 105.092 89.6006C104.272 89.1153 103.581 89.0289 102.86 88.851L102.86 88.851Z" fill="#246833" stroke="#246833" stroke-width="0.147381"/>
<path fill-rule="evenodd" clip-rule="evenodd" d="M94.5397 78.5639C95.0639 77.3425 96.7181 78.3384 97.3125 79.3083C98.1983 80.8882 99.1448 82.983 98.5594 85.7109C98.2753 87.3591 96.8655 88.3363 96.875 88.1424C96.8764 88.14 97.348 86.2796 97.4548 85.5049C97.6716 84.7308 97.4329 82.4696 97.3763 82.5874C97.1522 81.336 96.5624 80.3825 96.0699 79.8261C95.4894 79.162 95.0281 78.9103 94.5396 78.564L94.5397 78.5639Z" fill="#246833" stroke="#246833" stroke-width="0.114662"/>
<path fill-rule="evenodd" clip-rule="evenodd" d="M111.286 75.8601C111.905 75.1122 113.257 76.6522 113.667 77.6976C114.261 79.3638 114.846 81.4711 113.987 83.4029C113.529 84.6009 112.151 84.757 112.183 84.6053C112.185 84.6032 112.836 83.3188 113.027 82.7439C113.316 82.2184 113.384 80.2936 113.319 80.363C113.273 79.2565 112.865 78.2263 112.495 77.559C112.06 76.7655 111.679 76.357 111.286 75.8603L111.286 75.8601Z" fill="#246833" stroke="#246833" stroke-width="0.100772"/>
<path fill-rule="evenodd" clip-rule="evenodd" d="M58.6791 38.2032C59.0651 37.1537 60.6643 38.3581 61.2882 39.3613C62.2287 40.9814 63.2662 43.0914 62.9453 45.5345C62.8154 47.0221 61.5971 47.6963 61.5904 47.5173C61.5916 47.5148 61.8766 45.8612 61.9131 45.1575C62.0509 44.4728 61.6509 42.3263 61.6084 42.4266C61.3025 41.2232 60.6841 40.2362 60.1869 39.6354C59.6001 38.9195 59.156 38.6077 58.6791 38.2033L58.6791 38.2032Z" fill="#246833" stroke="#246833" stroke-width="0.105291"/>
<path fill-rule="evenodd" clip-rule="evenodd" d="M117.052 84.3968C117.434 83.2931 118.697 83.9537 119.158 84.7139C119.846 85.9617 120.586 87.6423 120.174 90.04C119.985 91.4813 118.922 92.4775 118.927 92.3107C118.928 92.3082 119.264 90.665 119.336 89.991C119.492 89.3048 119.285 87.4007 119.244 87.5078C119.06 86.4645 118.603 85.7178 118.224 85.2992C117.778 84.7985 117.425 84.6365 117.052 84.3969L117.052 84.3968Z" fill="#246833" stroke="#246833" stroke-width="0.0922756"/>
<path fill-rule="evenodd" clip-rule="evenodd" d="M122.175 72.6231C122.721 71.59 123.869 72.4341 124.209 73.2553C124.7 74.5929 125.176 76.3662 124.406 78.6739C124.002 80.0703 122.799 80.8938 122.829 80.7297C122.831 80.7273 123.409 79.153 123.586 78.4989C123.844 77.8443 123.928 75.9307 123.871 76.0303C123.847 74.9712 123.509 74.1639 123.198 73.6928C122.832 73.1303 122.509 72.9168 122.176 72.6235L122.175 72.6231Z" fill="#246833" stroke="#246833" stroke-width="0.0922756"/>
<path fill-rule="evenodd" clip-rule="evenodd" d="M111.666 98.4704C112.418 97.3563 113.859 97.3799 114.259 97.8352C114.829 98.6117 115.361 99.7381 114.261 101.978C113.674 103.298 112.087 104.613 112.133 104.468C112.135 104.464 112.957 102.907 113.212 102.296C113.575 101.639 113.772 100.091 113.694 100.201C113.712 99.3828 113.314 98.9376 112.935 98.7409C112.489 98.503 112.083 98.5153 111.667 98.4703L111.666 98.4704Z" fill="#246833" stroke="#246833" stroke-width="0.0916096"/>
<path fill-rule="evenodd" clip-rule="evenodd" d="M88.8741 116.139C89.4004 115.183 91.7763 115.173 92.7185 115.549C94.1428 116.193 95.724 117.133 95.3336 119.046C95.1911 120.176 93.4356 121.317 93.4201 121.193C93.4206 121.192 93.7852 119.858 93.8134 119.337C93.9927 118.775 93.3405 117.463 93.2816 117.558C92.7966 116.867 91.8627 116.499 91.118 116.341C90.2389 116.149 89.5808 116.168 88.8721 116.138L88.8741 116.139Z" fill="#246833" stroke="#246833" stroke-width="0.108214"/>
<path fill-rule="evenodd" clip-rule="evenodd" d="M81.9405 125.045C82.434 124.048 84.7233 123.336 85.6373 123.389C87.0199 123.534 88.5583 123.894 88.211 125.694C88.0907 126.73 86.4156 128.253 86.3989 128.149C86.3992 128.148 86.7294 126.866 86.7499 126.399C86.9074 125.849 86.2658 124.89 86.2105 124.99C85.7324 124.525 84.8267 124.478 84.1063 124.559C83.2562 124.65 82.6221 124.861 81.9386 125.045L81.9405 125.045Z" fill="#246833" stroke="#246833" stroke-width="0.0999364"/>
<path fill-rule="evenodd" clip-rule="evenodd" d="M68.296 128.051C69.3953 127.393 72.374 127.368 73.3808 127.618C74.8678 128.047 76.4152 128.678 75.0461 129.99C74.3479 130.764 71.6249 131.557 71.6626 131.473C71.6635 131.472 72.7325 130.557 73.0089 130.2C73.4854 129.811 73.2791 128.922 73.1618 128.987C72.8725 128.518 71.8722 128.274 71.0124 128.172C70 128.047 69.1674 128.065 68.2936 128.051L68.296 128.051Z" fill="#246833" stroke="#246833" stroke-width="0.0999364"/>
<path fill-rule="evenodd" clip-rule="evenodd" d="M95.4638 121.722C96.0679 121.109 98.1604 120.776 98.9346 120.86C100.093 121.028 101.346 121.343 100.72 122.48C100.429 123.139 98.715 124.026 98.7198 123.958C98.7202 123.957 99.2374 123.152 99.3395 122.853C99.5758 122.509 99.1998 121.858 99.134 121.919C98.8088 121.595 98.0411 121.515 97.4089 121.528C96.6636 121.54 96.0817 121.641 95.4622 121.722L95.4638 121.722Z" fill="#246833" stroke="#246833" stroke-width="0.0748079"/>
<path fill-rule="evenodd" clip-rule="evenodd" d="M103.339 111.942C104.212 111.12 106.41 110.776 107.129 110.938C108.185 111.241 109.267 111.754 108.133 113.308C107.55 114.213 105.464 115.354 105.499 115.259C105.499 115.258 106.375 114.163 106.613 113.75C107.006 113.285 106.933 112.349 106.84 112.432C106.671 111.959 105.957 111.803 105.333 111.784C104.598 111.758 103.982 111.866 103.34 111.943L103.339 111.942Z" fill="#246833" stroke="#246833" stroke-width="0.0883559"/>
<path fill-rule="evenodd" clip-rule="evenodd" d="M114.598 106.351C115.142 105.541 116.563 104.762 117.035 104.708C117.731 104.675 118.449 104.79 117.757 106.195C117.401 106.997 116.078 108.329 116.099 108.251C116.099 108.251 116.637 107.241 116.78 106.884C117.019 106.449 116.948 105.785 116.889 105.867C116.766 105.563 116.296 105.621 115.89 105.757C115.411 105.915 115.014 106.141 114.597 106.352L114.598 106.351Z" fill="#246833" stroke="#246833" stroke-width="0.0613116"/>
<path fill-rule="evenodd" clip-rule="evenodd" d="M126.058 80.7279C126.312 79.958 127.142 80.3994 127.433 80.9163C127.866 81.7655 128.326 82.9119 128.022 84.5687C127.877 85.5636 127.167 86.265 127.173 86.1502C127.174 86.1492 127.418 85.0124 127.474 84.5471C127.584 84.0717 127.478 82.7644 127.45 82.8388C127.344 82.123 127.056 81.6156 126.814 81.3327C126.528 80.9945 126.3 80.888 126.059 80.7284L126.058 80.7279Z" fill="#246833" stroke="#246833" stroke-width="0.0619445"/>
<path fill-rule="evenodd" clip-rule="evenodd" d="M121.105 93.1459C121.359 92.376 122.189 92.8173 122.48 93.3342C122.913 94.1834 123.373 95.3299 123.069 96.9866C122.924 97.9816 122.214 98.6829 122.22 98.5682C122.221 98.5671 122.465 97.4303 122.521 96.965C122.631 96.4896 122.525 95.1824 122.497 95.2568C122.391 94.541 122.103 94.0335 121.861 93.7507C121.575 93.4124 121.347 93.3059 121.106 93.1463L121.105 93.1459Z" fill="#246833" stroke="#246833" stroke-width="0.0619445"/>
<path fill-rule="evenodd" clip-rule="evenodd" d="M38.1773 40.0726C39.3027 38.5752 42.4951 39.25 43.5948 40.1742C45.2236 41.7016 46.9333 43.7864 45.5707 46.9783C44.8842 48.8883 42.0281 50.3468 42.0614 50.1283C42.0623 50.1258 43.1362 47.9295 43.4057 47.0386C43.8923 46.1197 43.5928 43.6637 43.4721 43.8097C43.1245 42.4747 42.0325 41.5674 41.1024 41.0769C40.0067 40.4895 39.1156 40.3303 38.1773 40.0727L38.1773 40.0726Z" fill="#246833" stroke="#246833" stroke-width="0.169246"/>
<path fill-rule="evenodd" clip-rule="evenodd" d="M46.0587 26.6171C46.9928 25.4275 49.7412 26.0378 50.7017 26.8079C52.1277 28.0769 53.634 29.7987 52.5308 32.3551C51.9816 33.8876 49.5636 35.0107 49.5878 34.8346C49.5888 34.8321 50.4643 33.0763 50.6773 32.3605C51.0758 31.6265 50.7699 29.6324 50.6694 29.7482C50.3448 28.6606 49.3913 27.9044 48.5847 27.4886C47.6343 26.9912 46.8674 26.8449 46.0587 26.6172L46.0587 26.6171Z" fill="#246833" stroke="#246833" stroke-width="0.140891"/>
<path fill-rule="evenodd" clip-rule="evenodd" d="M24.7805 44.298C25.9258 43.1837 28.6101 44.6825 29.4554 45.8537C30.6893 47.7383 31.9293 50.1725 30.3846 52.827C29.5713 54.4498 26.9338 55.0613 26.9878 54.8636C26.989 54.8611 28.1695 53.0715 28.5048 52.3008C29.0313 51.5621 29.0537 49.1564 28.9325 49.2621C28.7848 47.9046 27.9442 46.7516 27.1958 46.0367C26.3154 45.1855 25.5627 44.7946 24.7805 44.2979L24.7805 44.298Z" fill="#246833" stroke="#246833" stroke-width="0.156018"/>
<path fill-rule="evenodd" clip-rule="evenodd" d="M22.1723 35.5817C22.8612 34.7688 23.8384 35.8987 24.0378 36.7708C24.3018 38.173 24.4832 39.9809 23.3755 41.9275C22.7576 43.1189 21.4741 43.5474 21.5291 43.4018C21.5303 43.3994 22.3395 42.089 22.6101 41.5228C22.9617 40.9818 23.3451 39.206 23.2737 39.2828C23.4175 38.2792 23.2175 37.4207 22.9911 36.8863C22.7265 36.2503 22.4477 35.9551 22.1723 35.5817L22.1723 35.5817Z" fill="#246833" stroke="#246833" stroke-width="0.0901798"/>
<path fill-rule="evenodd" clip-rule="evenodd" d="M33.8523 28.7825C34.6336 27.9511 36.3106 28.9334 36.8124 29.7414C37.5383 31.0456 38.2476 32.7414 37.1505 34.684C36.5648 35.8675 34.8388 36.3883 34.8809 36.2455C34.8815 36.2442 35.7113 34.9297 35.9567 34.3693C36.3242 33.8255 36.4288 32.1094 36.3467 32.1887C36.3022 31.2254 35.8029 30.4303 35.3465 29.9446C34.81 29.366 34.3386 29.1115 33.8523 28.7825V28.7825Z" fill="#246833" stroke="#246833" stroke-width="0.105726"/>
<path fill-rule="evenodd" clip-rule="evenodd" d="M40.9078 18.1248C41.5795 17.3489 42.9298 18.18 43.3171 18.8924C43.8726 20.0452 44.4017 21.5519 43.4329 23.3406C42.9105 24.4276 41.4703 24.9545 41.5097 24.8242C41.5103 24.8231 42.2379 23.6097 42.4588 23.096C42.7794 22.5932 42.9228 21.0415 42.8523 21.1157C42.8475 20.2481 42.4619 19.5473 42.1015 19.1241C41.6782 18.6197 41.2979 18.4056 40.9078 18.1248V18.1248Z" fill="#246833" stroke="#246833" stroke-width="0.09113"/>
<path fill-rule="evenodd" clip-rule="evenodd" d="M53.3357 16.3228C53.8866 15.3842 56.0169 15.5405 56.8303 15.9905C58.0539 16.7477 59.3937 17.8184 58.8859 19.7444C58.6684 20.8883 56.9966 21.9285 56.9929 21.801C56.9932 21.7997 57.431 20.4647 57.5002 19.9348C57.7076 19.3736 57.2313 17.9888 57.1705 18.0811C56.793 17.3417 55.9863 16.9008 55.3315 16.6869C54.5594 16.4296 53.9677 16.4035 53.335 16.3227L53.3357 16.3228Z" fill="#246833" stroke="#246833" stroke-width="0.103843"/>
<path fill-rule="evenodd" clip-rule="evenodd" d="M63.8549 132.026C61.4698 131.819 60.0357 131.859 56.4782 131.056C51.5167 130.094 46.8202 128.67 43.1489 126.998C36.038 123.572 34.3426 121.918 28.9017 117.9C21.7807 111.349 19.0828 107.842 15.3463 101.84C12.1517 96.5313 8.64405 89.2705 6.67033 78.2955C6.0335 70.5592 5.26968 62.9124 8.39429 51.3548C10.4439 45.3244 12.5194 40.1366 14.7928 36.7612C16.3393 38.4226 16.0482 40.4094 16.263 42.5158C17.2165 45.0125 18.4332 47.2617 18.6952 50.4085L18.9969 55.2802C20.7993 55.9495 24.1522 57.7188 24.8034 59.826C25.0103 63.1895 25.087 65.0426 23.4396 69.4169C25.1049 69.2492 28.2032 69.5325 29.7722 70.2591C31.9472 71.8957 32.6805 73.656 33.2344 76.3975C33.2669 78.4161 33.9239 80.084 32.5914 81.8419L30.9692 84.9098C30.388 92.7181 31.7984 95.1281 35.7115 97.9813C37.226 98.6186 38.9007 98.8204 40.2056 100.028C42.3946 102.545 43.5755 103.948 43.9787 106.052L45.2095 109.141C47.8334 109.515 49.9234 110.32 53.3443 112.418C54.9729 114.549 55.5346 115.685 55.987 117.147C55.7189 117.927 56.277 115.974 56.1884 120.147C56.6094 120.224 58.5783 120.499 60.1778 121.031C61.4034 121.439 62.208 122.06 63.9932 122.756C65.4685 124.034 65.9594 124.816 65.837 126.478C65.9994 128.113 66.2705 127.617 65.6522 130.818C65.7261 131.447 65.9165 131.877 63.8549 132.026V132.026Z" fill="#246833" stroke="#246833" stroke-width="0.210866"/>
<path d="M15.7589 65.9265C16.1798 68.8431 17.7098 70.5948 19.1764 69.839C20.643 69.0833 21.4907 66.1063 21.0699 63.1897C20.649 60.2731 19.119 58.5213 17.6524 59.2771C16.1858 60.0329 15.3381 63.0099 15.7589 65.9265Z" fill="white"/>
<path d="M24.6147 81.7974C26.4977 83.9815 28.8939 83.6557 29.9667 81.0695C31.0395 78.4834 30.3826 74.6163 28.4995 72.4322C26.6164 70.2481 24.2202 70.5741 23.1474 73.1602C22.0746 75.7463 22.7316 79.6133 24.6147 81.7974Z" fill="white"/>
<path d="M14.8721 83.8546C16.438 85.6707 18.4305 85.3997 19.3226 83.2493C20.2146 81.0988 19.6684 77.8832 18.1025 76.067C16.5367 74.2509 14.5441 74.5219 13.6521 76.6723C12.76 78.8228 13.3063 82.0384 14.8721 83.8546Z" fill="white"/>
<path d="M8.97923 71.6095C10.0483 73.3196 11.7393 73.359 12.7562 71.6976C13.7731 70.0362 13.7308 67.3031 12.6618 65.593C11.5928 63.883 9.90175 63.8436 8.88486 65.505C7.86796 67.1663 7.91019 69.8995 8.97923 71.6095Z" fill="white"/>
<path d="M12.5399 56.6688C13.2098 58.3107 14.6543 58.5131 15.7664 57.1209C16.8785 55.7286 17.237 53.269 16.5671 51.6271C15.8972 49.9853 14.4526 49.783 13.3405 51.1752C12.2284 52.5675 11.87 55.027 12.5399 56.6688Z" fill="white"/>
<path d="M23.8846 96.1732C25.7108 97.7276 27.6382 97.1542 28.1895 94.8924C28.7409 92.6307 27.7075 89.537 25.8813 87.9825C24.0551 86.4281 22.1277 87.0015 21.5764 89.2633C21.025 91.5251 22.0585 94.6188 23.8846 96.1732Z" fill="white"/>
<path d="M15.1674 95.2958C16.362 96.5964 17.6466 96.36 18.0366 94.7675C18.4266 93.1751 17.7743 90.8297 16.5796 89.5291C15.385 88.2285 14.1005 88.4652 13.7105 90.0577C13.3205 91.6501 13.9727 93.9952 15.1674 95.2958Z" fill="white"/>
<path d="M23.549 106.723C25.1181 108.279 26.703 108.14 27.0889 106.413C27.4748 104.686 26.5156 102.026 24.9465 100.47C23.3774 98.915 21.7925 99.0538 21.4065 100.781C21.0206 102.507 21.9799 105.168 23.549 106.723Z" fill="white"/>
<path d="M36.0381 109.077C38.2668 109.965 39.9094 108.804 39.7068 106.485C39.5043 104.166 37.5333 101.567 35.3046 100.679C33.076 99.7912 31.4334 100.952 31.636 103.271C31.8385 105.59 33.8095 108.189 36.0381 109.077Z" fill="white"/>
<path d="M34.2706 117.445C36.1684 118.524 37.7206 117.992 37.7376 116.258C37.7546 114.524 36.23 112.243 34.3322 111.164C32.4343 110.086 30.882 110.617 30.865 112.351C30.848 114.085 32.3728 116.366 34.2706 117.445Z" fill="white"/>
<path d="M48.8172 120.264C51.187 120.637 52.5323 119.143 51.8221 116.926C51.1119 114.709 48.6152 112.609 46.2454 112.235C43.8756 111.862 42.5301 113.356 43.2403 115.573C43.9505 117.79 46.4474 119.89 48.8172 120.264Z" fill="white"/>
<path d="M60.4578 128.354C62.5647 128.138 63.3734 126.563 62.2642 124.835C61.155 123.108 58.5478 121.882 56.4409 122.097C54.334 122.312 53.5252 123.888 54.6345 125.615C55.7437 127.343 58.3509 128.569 60.4578 128.354Z" fill="white"/>
<path d="M46.0665 125.523C48.1608 126.186 49.4992 125.666 49.056 124.361C48.6127 123.056 46.5556 121.461 44.4614 120.797C42.3671 120.134 41.0286 120.654 41.4719 121.959C41.9151 123.264 43.9722 124.859 46.0665 125.523Z" fill="white"/>
<path fill-rule="evenodd" clip-rule="evenodd" d="M49.7122 54.045C50.6936 52.5824 53.4955 53.1724 54.4635 54.0419C55.8973 55.482 57.4045 57.4573 56.2216 60.5558C55.6271 62.4075 53.1279 63.8649 53.1563 63.6539C53.1572 63.6514 54.0904 61.5169 54.3231 60.6541C54.7457 59.76 54.4745 57.4014 54.3695 57.5443C54.0594 56.2654 53.0986 55.4123 52.2811 54.9574C51.3183 54.4123 50.5361 54.2756 49.7121 54.0452L49.7122 54.045Z" fill="#246833" stroke="#246833" stroke-width="0.155514"/>
</g>
<defs>
<clipPath id="clip0_98_17">
<rect width="138" height="138" fill="white"/>
</clipPath>
</defs>
</svg>
